<svg width="60" height="44" viewBox="0 0 60 44" fill="none" xmlns="http://www.w3.org/2000/svg">
<path d="M56.0903 0C53.1204 0 50.623 2.42991 50.623 5.46729V8.36968C50.623 8.77466 50.2856 9.11215 49.8806 9.11215H9.17965C8.77466 9.11215 8.43717 8.77466 8.43717 8.36968V5.46729C8.43717 2.42991 6.00727 0 2.96989 0H0C0 0 3.84735 1.88993 3.84735 4.52233V7.7622V10.0571C3.84735 12.0145 5.46729 13.6345 7.42471 13.6345H26.6615C26.999 13.6345 27.2015 13.9045 27.2015 14.1745V19.8442C27.2015 20.1817 26.9315 20.3842 26.6615 20.3842H7.42471C5.46729 20.3842 3.84735 22.0042 3.84735 23.9616V39.5535C3.84735 41.5109 5.46729 43.1308 7.42471 43.1308H51.6355C53.5929 43.1308 55.2129 41.5109 55.2129 39.5535V24.0966C55.2129 22.1392 53.5929 20.5192 51.6355 20.5192H32.3988C32.0613 20.5192 31.8588 20.2492 31.8588 19.9792V14.3095C31.8588 13.972 32.1288 13.7695 32.3988 13.7695H51.6355C53.5929 13.7695 55.2129 12.1495 55.2129 10.1921V4.52233C55.2129 1.88993 59.0602 0 59.0602 0H59.1952H56.0903ZM50.6905 25.5815V38.0685C50.6905 38.406 50.4206 38.6085 50.1506 38.6085H8.97715C8.63967 38.6085 8.43717 38.3385 8.43717 38.0685V25.5815C8.43717 25.244 8.70716 25.0415 8.97715 25.0415H50.0831C50.4206 25.0415 50.6905 25.3115 50.6905 25.5815Z" fill="#08EBB6"/>
</svg>
